<svg  viewBox="0 0 42 42" fill="none" xmlns="http://www.w3.org/2000/svg">
<path d="M40.7301 1H1.2699C1.12084 1 1 1.12084 1 1.2699V40.7301C1 40.8792 1.12084 41 1.2699 41H40.7301C40.8792 41 41 40.8792 41 40.7301V1.2699C41 1.12084 40.8792 1 40.7301 1Z" fill="#512FFF" stroke="#512FFF" stroke-width="0.6"/>
<path d="M3.87305 39.1488L21.1294 3.28223L38.3856 39.1488H3.87305Z" fill="#FFFA7A" fill-opacity="0.8" stroke="#FFFA7A" stroke-width="0.3"/>
<path d="M21.1075 37.842C26.3246 37.842 30.5539 33.6127 30.5539 28.3956C30.5539 23.1785 26.3246 18.9492 21.1075 18.9492C15.8904 18.9492 11.6611 23.1785 11.6611 28.3956C11.6611 33.6127 15.8904 37.842 21.1075 37.842Z" fill="#FF6868" fill-opacity="0.8" stroke="#FF6868" stroke-width="0.3"/>
</svg>